<?xml version="1.0" encoding="UTF-8" standalone="no"?>
<!DOCTYPE svg PUBLIC "-//W3C//DTD SVG 1.1//EN" "http://www.w3.org/Graphics/SVG/1.1/DTD/svg11.dtd">
<svg width="100%" height="100%" viewBox="0 0 512 512" version="1.1" xmlns="http://www.w3.org/2000/svg" xmlns:xlink="http://www.w3.org/1999/xlink" xml:space="preserve" xmlns:serif="http://www.serif.com/" style="fill-rule:evenodd;clip-rule:evenodd;stroke-linejoin:round;stroke-miterlimit:2;">
    <g transform="matrix(1,0,0,1,-843,-1266.21)">
        <rect id="アートボード1" x="0" y="0" width="2480.32" height="3507.87" style="fill:none;"/>
        <g transform="matrix(1,0,0,1,843,1266.21)">
            <g id="アートボード11" serif:id="アートボード1">
                <path d="M160,256L128,256C75.12,256 32,217.778 32,170.667L32,412.444C32,467.449 82.13,512 144,512C152.875,512 160,505.667 160,497.778L160,256ZM131.4,227.556L192,227.556L192,426.667L384,426.667C437,426.667 480,388.444 480,341.333L480,99.2C466.62,108.267 450.12,113.778 432,113.778L128,113.778C89.12,113.778 58.37,144.551 64.87,180.222C70,208.267 99.5,227.556 131.4,227.556ZM358,255.996L256,308.996L256,202.996L358,255.996ZM480,42.667C480,19.111 458.5,-0 432,-0L368,-0C359.1,-0 352,6.333 352,14.222L352,85.333L432,85.333C458.5,85.333 480,66.222 480,42.667Z" style="fill:white;fill-rule:nonzero;"/>
            </g>
        </g>
    </g>
</svg>
